<mxfile host="app.diagrams.net" modified="2021-10-27T01:41:17.196Z" agent="5.0 (Windows NT 10.0; Win64; x64) AppleWebKit/537.36 (KHTML, like Gecko) Chrome/95.0.4638.54 Safari/537.36 Edg/95.0.1020.30" etag="hXJZPKvBjBCpGy0FTMXa" version="15.5.9" type="github">
  <diagram id="7rFrvO0aa-iSg9cNLVyl" name="Trang-1">
    <mxGraphModel dx="1422" dy="754" grid="1" gridSize="10" guides="1" tooltips="1" connect="1" arrows="1" fold="1" page="1" pageScale="1" pageWidth="827" pageHeight="1169" math="0" shadow="0">
      <root>
        <mxCell id="0" />
        <mxCell id="1" parent="0" />
        <mxCell id="8R50_8WU6lgMvSwD3Hi6-3" value="Nha cung cap" style="whiteSpace=wrap;html=1;align=center;" vertex="1" parent="1">
          <mxGeometry x="183" y="245" width="120" height="50" as="geometry" />
        </mxCell>
        <mxCell id="8R50_8WU6lgMvSwD3Hi6-4" value="Cung cap" style="shape=rhombus;perimeter=rhombusPerimeter;whiteSpace=wrap;html=1;align=center;" vertex="1" parent="1">
          <mxGeometry x="373" y="240" width="120" height="60" as="geometry" />
        </mxCell>
        <mxCell id="8R50_8WU6lgMvSwD3Hi6-5" value="Vat tu" style="whiteSpace=wrap;html=1;align=center;" vertex="1" parent="1">
          <mxGeometry x="553" y="245" width="110" height="50" as="geometry" />
        </mxCell>
        <mxCell id="8R50_8WU6lgMvSwD3Hi6-9" value="Đơn giá" style="ellipse;margin=3;whiteSpace=wrap;html=1;align=center;" vertex="1" parent="1">
          <mxGeometry x="377" y="330" width="112" height="50" as="geometry" />
        </mxCell>
        <mxCell id="8R50_8WU6lgMvSwD3Hi6-10" value="" style="endArrow=none;html=1;rounded=0;exitX=0.5;exitY=1;exitDx=0;exitDy=0;entryX=0.5;entryY=0;entryDx=0;entryDy=0;" edge="1" parent="1" source="8R50_8WU6lgMvSwD3Hi6-4" target="8R50_8WU6lgMvSwD3Hi6-9">
          <mxGeometry relative="1" as="geometry">
            <mxPoint x="373" y="400" as="sourcePoint" />
            <mxPoint x="533" y="400" as="targetPoint" />
          </mxGeometry>
        </mxCell>
        <mxCell id="8R50_8WU6lgMvSwD3Hi6-11" value="TenNCC" style="ellipse;whiteSpace=wrap;html=1;align=center;" vertex="1" parent="1">
          <mxGeometry x="188" y="160" width="110" height="50" as="geometry" />
        </mxCell>
        <mxCell id="8R50_8WU6lgMvSwD3Hi6-12" value="MaNCC" style="ellipse;whiteSpace=wrap;html=1;align=center;fontStyle=4;" vertex="1" parent="1">
          <mxGeometry x="30" y="240" width="110" height="60" as="geometry" />
        </mxCell>
        <mxCell id="8R50_8WU6lgMvSwD3Hi6-13" value="" style="endArrow=none;html=1;rounded=0;exitX=1;exitY=0.5;exitDx=0;exitDy=0;entryX=0;entryY=0.5;entryDx=0;entryDy=0;" edge="1" parent="1" source="8R50_8WU6lgMvSwD3Hi6-12" target="8R50_8WU6lgMvSwD3Hi6-3">
          <mxGeometry relative="1" as="geometry">
            <mxPoint x="113" y="340" as="sourcePoint" />
            <mxPoint x="273" y="340" as="targetPoint" />
          </mxGeometry>
        </mxCell>
        <mxCell id="8R50_8WU6lgMvSwD3Hi6-14" value="" style="endArrow=none;html=1;rounded=0;exitX=0.5;exitY=1;exitDx=0;exitDy=0;entryX=0.5;entryY=0;entryDx=0;entryDy=0;" edge="1" parent="1" source="8R50_8WU6lgMvSwD3Hi6-11" target="8R50_8WU6lgMvSwD3Hi6-3">
          <mxGeometry relative="1" as="geometry">
            <mxPoint x="373" y="400" as="sourcePoint" />
            <mxPoint x="533" y="400" as="targetPoint" />
          </mxGeometry>
        </mxCell>
        <mxCell id="8R50_8WU6lgMvSwD3Hi6-15" value="&lt;u&gt;Mavattu&lt;/u&gt;" style="ellipse;whiteSpace=wrap;html=1;align=center;" vertex="1" parent="1">
          <mxGeometry x="700" y="250" width="100" height="40" as="geometry" />
        </mxCell>
        <mxCell id="8R50_8WU6lgMvSwD3Hi6-16" value="Tenvattu" style="ellipse;whiteSpace=wrap;html=1;align=center;" vertex="1" parent="1">
          <mxGeometry x="558" y="165" width="100" height="40" as="geometry" />
        </mxCell>
        <mxCell id="8R50_8WU6lgMvSwD3Hi6-17" value="" style="endArrow=none;html=1;rounded=0;exitX=0.5;exitY=1;exitDx=0;exitDy=0;entryX=0.5;entryY=0;entryDx=0;entryDy=0;" edge="1" parent="1" source="8R50_8WU6lgMvSwD3Hi6-16" target="8R50_8WU6lgMvSwD3Hi6-5">
          <mxGeometry relative="1" as="geometry">
            <mxPoint x="373" y="400" as="sourcePoint" />
            <mxPoint x="533" y="400" as="targetPoint" />
          </mxGeometry>
        </mxCell>
        <mxCell id="8R50_8WU6lgMvSwD3Hi6-18" value="" style="endArrow=none;html=1;rounded=0;exitX=1;exitY=0.5;exitDx=0;exitDy=0;entryX=0;entryY=0.5;entryDx=0;entryDy=0;" edge="1" parent="1" source="8R50_8WU6lgMvSwD3Hi6-5" target="8R50_8WU6lgMvSwD3Hi6-15">
          <mxGeometry relative="1" as="geometry">
            <mxPoint x="373" y="400" as="sourcePoint" />
            <mxPoint x="533" y="400" as="targetPoint" />
          </mxGeometry>
        </mxCell>
        <mxCell id="8R50_8WU6lgMvSwD3Hi6-19" value="Diachi" style="ellipse;shape=doubleEllipse;margin=3;whiteSpace=wrap;html=1;align=center;" vertex="1" parent="1">
          <mxGeometry x="188" y="330" width="110" height="50" as="geometry" />
        </mxCell>
        <mxCell id="8R50_8WU6lgMvSwD3Hi6-20" value="" style="endArrow=none;html=1;rounded=0;exitX=0.5;exitY=1;exitDx=0;exitDy=0;entryX=0.5;entryY=0;entryDx=0;entryDy=0;" edge="1" parent="1" source="8R50_8WU6lgMvSwD3Hi6-3" target="8R50_8WU6lgMvSwD3Hi6-19">
          <mxGeometry relative="1" as="geometry">
            <mxPoint x="373" y="400" as="sourcePoint" />
            <mxPoint x="533" y="400" as="targetPoint" />
          </mxGeometry>
        </mxCell>
        <mxCell id="8R50_8WU6lgMvSwD3Hi6-21" value="So luong" style="ellipse;whiteSpace=wrap;html=1;align=center;" vertex="1" parent="1">
          <mxGeometry x="383" y="160" width="100" height="40" as="geometry" />
        </mxCell>
        <mxCell id="8R50_8WU6lgMvSwD3Hi6-22" value="" style="endArrow=none;html=1;rounded=0;exitX=0.5;exitY=1;exitDx=0;exitDy=0;entryX=0.5;entryY=0;entryDx=0;entryDy=0;" edge="1" parent="1" source="8R50_8WU6lgMvSwD3Hi6-21" target="8R50_8WU6lgMvSwD3Hi6-4">
          <mxGeometry relative="1" as="geometry">
            <mxPoint x="330" y="390" as="sourcePoint" />
            <mxPoint x="490" y="390" as="targetPoint" />
          </mxGeometry>
        </mxCell>
        <mxCell id="8R50_8WU6lgMvSwD3Hi6-23" value="" style="edgeStyle=entityRelationEdgeStyle;fontSize=12;html=1;endArrow=ERoneToMany;rounded=0;exitX=0;exitY=0.5;exitDx=0;exitDy=0;entryX=1;entryY=0.5;entryDx=0;entryDy=0;" edge="1" parent="1" source="8R50_8WU6lgMvSwD3Hi6-4" target="8R50_8WU6lgMvSwD3Hi6-3">
          <mxGeometry width="100" height="100" relative="1" as="geometry">
            <mxPoint x="260" y="480" as="sourcePoint" />
            <mxPoint x="360" y="380" as="targetPoint" />
          </mxGeometry>
        </mxCell>
        <mxCell id="8R50_8WU6lgMvSwD3Hi6-24" value="" style="edgeStyle=entityRelationEdgeStyle;fontSize=12;html=1;endArrow=ERoneToMany;rounded=0;entryX=0;entryY=0.5;entryDx=0;entryDy=0;exitX=1;exitY=0.5;exitDx=0;exitDy=0;" edge="1" parent="1" source="8R50_8WU6lgMvSwD3Hi6-4" target="8R50_8WU6lgMvSwD3Hi6-5">
          <mxGeometry width="100" height="100" relative="1" as="geometry">
            <mxPoint x="450" y="430" as="sourcePoint" />
            <mxPoint x="550" y="330" as="targetPoint" />
          </mxGeometry>
        </mxCell>
      </root>
    </mxGraphModel>
  </diagram>
</mxfile>
